<?xml version="1.0" standalone="no"?>
<!DOCTYPE svg PUBLIC "-//W3C//DTD SVG 20010904//EN"
 "http://www.w3.org/TR/2001/REC-SVG-20010904/DTD/svg10.dtd">
<svg version="1.0" xmlns="http://www.w3.org/2000/svg"
 width="512.000000pt" height="512.000000pt" viewBox="0 0 512.000000 512.000000"
 preserveAspectRatio="xMidYMid meet">

<g transform="translate(0.000000,512.000000) scale(0.100000,-0.100000)"
fill="#000000" stroke="none">
<path d="M751 5104 c-36 -7 -96 -29 -135 -47 -190 -91 -315 -242 -366 -443
-20 -76 -20 -116 -20 -2138 0 -2250 -4 -2111 56 -2229 33 -65 128 -159 195
-193 111 -56 28 -54 2041 -54 l1857 0 15 22 c14 20 16 111 16 789 l0 767 240
191 c192 152 240 195 240 214 0 15 -42 78 -117 172 l-117 148 0 101 c-1 129
-18 166 -150 331 l-96 120 0 1110 c0 989 -2 1113 -16 1133 l-15 22 -1782 -1
c-1484 0 -1793 -3 -1846 -15z m3549 -1101 c0 -554 -4 -1003 -8 -997 -5 5 -93
116 -195 246 -103 130 -206 253 -229 272 -65 56 -137 78 -238 74 -62 -3 -98
-10 -130 -26 -25 -12 -171 -121 -324 -242 -154 -121 -282 -220 -285 -220 -3 1
-73 87 -156 191 -161 206 -194 238 -268 263 -186 63 -373 -70 -371 -264 0 -43
7 -80 21 -110 11 -25 205 -279 431 -565 l412 -520 -59 -7 c-146 -17 -251 -125
-251 -259 0 -103 46 -188 127 -236 25 -14 170 -61 346 -110 343 -96 395 -103
501 -63 51 19 61 21 70 8 122 -161 190 -238 211 -238 15 0 79 43 172 116 81
64 165 130 186 146 l37 30 0 -276 0 -276 -1722 2 -1723 3 -3 89 c-2 50 -8 96
-14 103 -16 20 -66 16 -78 -6 -5 -11 -10 -58 -10 -105 l0 -86 -53 0 c-111 0
-235 -50 -319 -127 l-48 -46 2 1894 c3 1805 4 1897 21 1949 30 90 86 180 152
244 59 58 157 117 218 132 l27 6 0 -1747 c0 -1185 3 -1753 10 -1766 12 -22 59
-26 78 -7 9 9 12 417 12 1775 l0 1763 1725 0 1725 0 0 -1007z m-579 -515 c22
-6 57 -27 79 -46 51 -43 700 -863 731 -923 35 -68 33 -167 -6 -238 -26 -47
-65 -82 -332 -293 -166 -131 -305 -247 -308 -258 -10 -31 12 -60 45 -60 24 0
96 52 352 255 178 140 327 253 333 252 5 -2 41 -43 79 -91 67 -86 68 -88 50
-106 -28 -28 -818 -650 -825 -650 -3 0 -46 51 -95 114 -49 63 -98 119 -110
126 -18 10 -31 7 -85 -22 -99 -51 -149 -47 -444 36 -385 108 -390 110 -420
190 -28 73 0 155 67 196 41 25 122 26 195 2 44 -14 62 -29 123 -99 74 -87 101
-100 134 -67 28 27 18 50 -60 141 -108 126 -985 1238 -1007 1276 -24 43 -19
136 10 175 64 86 176 104 257 41 14 -11 166 -198 338 -416 172 -217 322 -400
335 -406 28 -13 63 14 63 49 0 13 -51 87 -131 189 -110 139 -129 169 -118 179
59 55 212 166 218 159 4 -4 65 -81 136 -171 119 -152 130 -163 158 -160 38 4
55 28 42 62 -6 14 -65 96 -132 181 -68 85 -123 157 -123 160 0 6 173 145 181
145 3 0 54 -62 114 -137 167 -213 182 -225 219 -187 31 30 17 58 -110 219 -69
88 -128 163 -130 167 -6 10 53 26 100 27 21 1 56 -4 77 -11z m519 -2653 c0 -3
-20 -41 -44 -83 -24 -42 -54 -108 -65 -146 -45 -146 -15 -323 79 -464 l22 -32
-1818 2 -1819 3 -58 30 c-75 38 -149 118 -178 193 -30 78 -30 186 0 264 44
114 164 210 283 228 59 8 3598 13 3598 5z m59 -377 l0 -263 -34 68 c-43 88
-60 185 -46 262 9 50 67 195 77 195 2 0 4 -118 3 -262z"/>
<path d="M665 624 c-23 -23 -15 -66 15 -81 20 -10 363 -13 1643 -13 l1618 0
24 25 c30 29 31 39 5 65 -20 20 -33 20 -1654 20 -1496 0 -1636 -1 -1651 -16z"/>
<path d="M662 368 c-15 -15 -15 -61 0 -76 9 -9 390 -12 1655 -12 l1643 0 16
25 c15 23 15 27 0 50 l-16 25 -1643 0 c-1265 0 -1646 -3 -1655 -12z"/>
</g>
</svg>
